<!DOCTYPE svg PUBLIC "-//W3C//DTD SVG 20010904//EN" "http://www.w3.org/TR/2001/REC-SVG-20010904/DTD/svg10.dtd">
<svg version="1.0" xmlns="http://www.w3.org/2000/svg" width="692px" height="692px" viewBox="600 600 5720 5720">
 <circle fill="#0066CC" stroke="none" cx="3450" cy="3500" r="2600" />
 <circle fill="#002352" stroke="none" cx="3450" cy="3500" r="2400" />
<g id="layer102" fill="#0066cc" stroke="none">
 <path d="M3370 5342 c-314 -140 -653 -464 -880 -842 -318 -527 -510 -1313 -510 -2086 0 -210 1 -214 79 -214 117 0 458 -57 636 -106 290 -81 548 -205 736 -355 33 -26 49 -22 125 37 209 163 525 292 899 369 106 22 358 55 418 55 35 0 53 6 68 21 22 22 22 26 15 233 -11 343 -43 630 -106 960 -70 363 -235 805 -406 1086 -240 394 -567 704 -894 847 -41 18 -79 33 -85 33 -5 0 -48 -17 -95 -38z m180 -97 c179 -90 313 -190 472 -351 128 -130 187 -203 284 -349 340 -516 528 -1216 559 -2087 l5 -168 -33 0 c-50 0 -298 -36 -417 -60 -341 -70 -634 -185 -857 -336 -61 -41 -102 -63 -108 -58 -37 29 -189 126 -240 154 -252 136 -621 242 -999 287 l-149 18 6 215 c24 821 219 1530 560 2045 137 207 347 429 525 555 101 72 277 170 305 170 10 0 49 -16 87 -35z"/>
 <path d="M3391 4949 c-163 -75 -385 -257 -523 -428 -311 -386 -489 -908 -543 -1593 -19 -249 -20 -411 -1 -427 7 -6 62 -16 122 -21 374 -35 713 -147 939 -310 38 -27 72 -50 76 -50 3 0 43 27 89 60 90 65 245 145 355 184 178 63 430 117 607 131 56 5 92 12 99 22 23 26 -4 492 -42 738 -116 757 -438 1333 -907 1624 -64 40 -191 103 -204 101 -2 -1 -32 -14 -67 -31z m779 -1179 c18 -18 20 -33 20 -164 l0 -144 70 -4 c60 -3 73 -7 100 -33 38 -36 47 -82 26 -127 -33 -70 -21 -68 -544 -68 l-470 0 -7 -30 c-12 -52 -85 -150 -148 -196 -220 -162 -526 -81 -644 172 -25 53 -28 70 -28 169 0 103 2 114 32 178 156 329 609 336 769 11 l37 -74 163 0 163 0 3 146 c4 196 -11 184 244 184 181 0 195 -1 214 -20z"/>
</g>
<g id="layer103" fill="#fefeff" stroke="none">
 <path d="M3391 4949 c-163 -75 -385 -257 -523 -428 -311 -386 -489 -908 -543 -1593 -19 -249 -20 -411 -1 -427 7 -6 62 -16 122 -21 374 -35 713 -147 939 -310 38 -27 73 -50 77 -50 5 0 8 250 8 555 l0 555 -49 0 c-47 0 -50 -2 -56 -30 -12 -52 -85 -150 -148 -196 -220 -162 -526 -81 -644 172 -25 53 -28 70 -28 169 0 103 2 114 32 178 156 329 609 336 769 11 l37 -74 44 0 43 0 0 760 c0 418 -3 760 -7 760 -5 -1 -37 -14 -72 -31z"/>
 <path d="M2910 3539 c-108 -32 -168 -150 -131 -261 13 -40 74 -102 114 -117 75 -29 167 -3 225 63 75 86 45 244 -57 296 -50 25 -106 32 -151 19z"/>
 </g>

</svg>